<svg width="34" height="29" viewBox="0 0 34 29" fill="none" xmlns="http://www.w3.org/2000/svg">
<path fill-rule="evenodd" clip-rule="evenodd" d="M22.2503 0.118338C21.6383 0.315753 21.1624 0.601162 20.6401 1.08381C19.7882 1.87119 19.3811 2.51617 19.0618 3.58404C18.7104 4.75939 18.7326 5.96302 19.1253 7.03049C19.3804 7.72376 19.6448 8.13607 20.1261 8.59061C21.457 9.8475 23.5349 9.69522 24.8762 8.24252C25.6203 7.43669 26.0165 6.77411 26.2989 5.86349C27.0391 3.47605 26.229 1.0209 24.4416 0.235016C23.9883 0.0357154 23.9089 0.0196022 23.305 0.00411752C22.7573 -0.00988152 22.5924 0.00794541 22.2503 0.118338ZM9.93461 0.15565C9.42146 0.311753 9.01548 0.574021 8.52082 1.06913C8.01361 1.57669 7.72511 2.08317 7.53949 2.79187C6.71187 5.95222 8.96014 9.52786 11.7776 9.5322C12.5442 9.5334 13.2529 9.27039 13.726 8.80905C14.1807 8.36583 14.3903 8.08499 14.644 7.57925C15.0445 6.78108 15.1128 6.44642 15.1084 5.30461C15.1049 4.41039 15.0872 4.2456 14.9415 3.74603C14.7655 3.1431 14.3509 2.28002 14.0246 1.83753C13.4979 1.1233 12.6206 0.453629 11.8902 0.208046C11.3717 0.0337155 10.4193 0.00823113 9.93461 0.15565ZM2.12678 8.03579C1.95631 8.09025 1.68561 8.2059 1.52522 8.29275C1.17315 8.48342 0.522057 9.16652 0.360552 9.51472C-0.806835 12.0314 1.00082 15.6079 3.76613 16.2528C4.26765 16.3698 4.88875 16.3345 5.40468 16.1597C5.92289 15.9841 6.509 15.4255 6.85519 14.7771C7.5043 13.5614 7.42417 11.9456 6.6415 10.4683C5.99363 9.24554 4.92839 8.33874 3.77034 8.02419C3.32366 7.90289 2.52504 7.90855 2.12678 8.03579ZM30.8339 8.27772C29.5566 8.47645 28.2641 9.32748 27.3261 10.5873C26.5902 11.5757 26.2889 13.1102 26.6296 14.135C27.22 15.911 29.1999 16.4766 31.2029 15.4415C32.3494 14.849 33.5441 13.3317 33.8757 12.047C34.0256 11.4661 34.0426 10.5648 33.9121 10.1118C33.6263 9.11926 32.8336 8.43091 31.7958 8.27383C31.3895 8.21235 31.2504 8.21287 30.8339 8.27772ZM15.9063 10.8183C14.1256 11.113 12.8066 12.106 11.2911 14.2927C9.48064 16.9048 9.31474 17.0953 8.07477 17.9857C6.80758 18.8957 5.52828 20.1923 5.10046 21C4.79848 21.5703 4.65966 21.9759 4.47862 22.8165C3.81498 25.8987 5.37698 28.3841 8.28141 28.8674C9.11799 29.0066 9.69142 29.0329 10.3368 28.9617C11.0863 28.879 11.6632 28.7331 13.0409 28.2777C14.9016 27.6626 15.9765 27.509 17.4928 27.6416C18.5659 27.7354 19.5154 27.9245 21.3741 28.4147C22.2528 28.6464 23.1354 28.8639 23.3353 28.898C24.7752 29.144 26.8358 28.5575 27.8342 27.6174C28.8622 26.6495 29.239 25.6634 29.1551 24.1605C29.077 22.7591 28.8816 21.9474 28.4056 21.0464C27.9994 20.2776 27.5607 19.8005 26.4275 18.8949C24.9415 17.7072 24.4591 17.1632 23.5222 15.6182C21.7424 12.6834 19.9576 11.0165 18.3585 10.7957C17.7973 10.7181 16.4355 10.7308 15.9063 10.8183Z" fill="#FFF8E5"/>
</svg>
