<svg width="185" height="187" viewBox="0 0 185 187" fill="none" xmlns="http://www.w3.org/2000/svg">
<path fill-rule="evenodd" clip-rule="evenodd" d="M170.921 42.7386C167.633 41.5661 164.594 41.2522 160.639 41.677C154.187 42.3701 150.121 43.9205 144.877 47.6863C139.105 51.8313 134.796 57.3673 132.538 63.5377C131.072 67.5451 130.673 70.3096 131.028 73.9986C132.011 84.1992 141.28 90.5313 152.217 88.4737C158.284 87.3325 162.369 85.6653 166.883 82.4881C178.719 74.1581 184.301 60.2809 179.682 50.6741C178.51 48.2378 178.236 47.8966 175.761 45.7852C173.515 43.8703 172.759 43.3941 170.921 42.7386ZM119.149 1.28327C116.426 0.257194 113.765 0.0749567 109.88 0.649455C105.897 1.23805 102.835 2.56088 99.4648 5.14891C84.4361 16.6904 80.7849 40.5121 92.5817 50.0541C95.7916 52.6507 99.7247 53.8526 103.396 53.3585C106.923 52.8842 108.829 52.3185 111.743 50.8816C116.341 48.6138 117.851 47.3263 122.009 42.1308C125.265 38.062 125.793 37.2546 127.009 34.4954C128.477 31.1651 129.895 25.8479 130.145 22.7375C130.549 17.7167 129.32 11.7135 127.156 8.13041C125.62 5.58717 121.72 2.25262 119.149 1.28327ZM57.5918 10.647C56.6779 10.3179 55.1199 9.9277 54.1298 9.77965C51.9563 9.45481 46.7281 10.3535 44.7775 11.3875C30.6784 18.8603 25.1767 41.1966 34.4121 53.4689C36.087 55.6946 38.8202 57.6336 41.6226 58.5843C44.4375 59.5391 48.9381 58.9854 52.7609 57.2139C59.9287 53.8921 65.5023 46.2904 67.6239 36.9424C69.3798 29.2049 68.23 21.4904 64.5251 16.1493C63.096 14.0892 59.7269 11.4157 57.5918 10.647ZM177.067 108.769C170.985 105.354 162.453 104.846 153.913 107.392C147.213 109.389 140.337 115.333 138.018 121.134C133.997 131.187 140.23 140.445 152.413 142.519C159.387 143.706 169.946 140.859 176.035 136.152C178.788 134.023 182.156 129.99 183.265 127.494C185.697 122.025 184.891 116.223 181.115 112.003C179.636 110.35 179.051 109.883 177.067 108.769ZM105.189 69.8436C96.6448 65.1624 87.4829 65.2095 73.131 70.0085C55.9868 75.7408 54.5945 76.0444 46.1391 75.8933C37.4978 75.7394 27.3921 77.2981 22.644 79.5171C19.2923 81.0837 17.2267 82.4549 13.3931 85.657C-0.661897 97.3978 -3.20313 113.954 7.20673 125.963C10.205 129.422 12.5131 131.479 15.4792 133.337C18.9241 135.496 21.8766 136.783 29.3188 139.373C39.3694 142.871 44.4378 145.808 50.3107 151.534C54.4664 155.586 57.7559 159.654 63.7561 168.159C66.5931 172.181 69.4976 176.15 70.211 176.981C75.3486 182.964 86.1333 187.267 93.7577 186.376C101.607 185.459 106.794 182.258 111.939 175.156C116.737 168.534 118.887 164.191 120.186 158.494C121.295 153.634 121.2 149.986 119.762 142.047C117.875 131.636 117.842 127.538 119.564 117.361C122.836 98.0306 121.449 84.4353 115.552 78.0287C113.483 75.7802 107.727 71.2349 105.189 69.8436Z" fill="#474143" fill-opacity="0.5"/>
</svg>
