<svg width="35" height="35" viewBox="0 0 35 35" fill="none" xmlns="http://www.w3.org/2000/svg">
<path fill-rule="evenodd" clip-rule="evenodd" d="M23.428 20.6901C27.1921 15.6204 26.775 8.42406 22.1766 3.82566C17.1195 -1.23145 8.92035 -1.23145 3.86325 3.82566C-1.19386 8.88277 -1.19386 17.082 3.86325 22.1391C8.44922 26.725 15.6191 27.1523 20.6865 23.4208L31.4982 34.2324C32.2537 34.9879 33.4787 34.9879 34.2342 34.2324C34.9898 33.4769 34.9898 32.2519 34.2342 31.4963L23.428 20.6901ZM19.9938 6.00901C23.845 9.86025 23.845 16.1043 19.9938 19.9556C16.1425 23.8068 9.89843 23.8068 6.04719 19.9556C2.19595 16.1043 2.19595 9.86025 6.04719 6.00901C9.89843 2.15777 16.1425 2.15777 19.9938 6.00901Z" fill="#474143"/>
</svg>
