<svg width="173" height="140" viewBox="0 0 173 140" fill="none" xmlns="http://www.w3.org/2000/svg">
<path fill-rule="evenodd" clip-rule="evenodd" d="M78.4144 0.404088C55.6995 2.63477 34.3156 13.8296 20.0614 30.9533C10.6515 42.2566 4.59191 54.9953 1.44219 70.0938C0.197459 76.0619 0.00772091 78.2877 8.78619e-05 87.0485C-0.00972606 98.6522 0.799925 104.262 3.77463 113.193C5.92988 119.663 10.362 128.479 11.46 128.479C12.3035 128.479 22.4691 120.633 30.4352 113.834C38.1233 107.272 50.7359 94.4776 57.11 86.7743C60.0863 83.177 62.9351 79.7852 63.44 79.2357C64.3172 78.2817 64.4917 78.4278 67.3612 82.5217C72.5277 89.8946 79.5714 95.3291 87.4105 97.9904C92.6871 99.7822 100.717 99.6667 107.311 97.7042C113.144 95.9685 119.587 92.6497 123.955 89.1304L127.123 86.5791L130.542 91.856C137.674 102.863 146.151 113.538 154.833 122.447C161.68 129.473 161.587 129.451 164.049 124.593C169.496 113.846 173.027 98.6124 173 85.9789C172.988 80.424 171.807 71.6327 170.214 65.2432C159.983 24.192 120.459 -3.7242 78.4144 0.404088ZM99.6779 5.25686C138.445 12.3436 166.455 43.8511 168.444 82.6106C169.084 95.0837 166.046 110.893 161.147 120.574L159.768 123.3L154.634 117.848C148.164 110.978 141.181 102.058 134.477 92.0981L129.253 84.337L131.102 82.2857C132.119 81.1573 133.807 79.04 134.852 77.5807C136.315 75.5369 136.792 75.1608 136.924 75.9453C137.417 78.8628 138.328 80.5887 139.77 81.3339C141.829 82.3985 144.65 82.3604 146.241 81.2461C147.41 80.4273 147.496 80.0594 147.238 77.0213C146.867 72.6532 144.917 66.895 143.035 64.613C142.208 63.6094 140.578 62.4478 139.414 62.0307C138.25 61.6137 132.682 59.1137 127.039 56.4748C121.397 53.8358 116.428 51.8117 115.998 51.9769C114.869 52.4102 115.019 54.0516 116.822 60.9814C119.012 69.3971 120.378 73.3902 123.015 79.0841L125.26 83.9309L122.555 86.3C119.338 89.1189 110.204 93.8278 105.831 94.9213C100.395 96.2814 95.6847 96.4858 91.227 95.5558C82.8236 93.8027 75.1376 88.4457 69.909 80.6988C68.42 78.4927 67.0657 76.3323 66.8988 75.8973C66.7266 75.4492 68.2842 72.5823 70.5006 69.2685C79.8112 55.3469 85.2296 40.5013 85.2296 28.9145C85.2296 25.8203 85.0372 24.7955 84.4112 24.5551C83.9522 24.379 77.8474 27.1357 70.4913 30.8416C63.2851 34.4716 56.8652 37.4415 56.2251 37.4415C55.585 37.4415 52.1573 36.0525 48.6079 34.3544C45.058 32.6563 41.9993 31.4216 41.8101 31.6107C41.0703 32.3499 44.618 38.2221 47.838 41.5867C50.6841 44.5614 51.431 45.7645 52.474 49.055C54.5333 55.5502 59.0341 67.3436 60.9756 71.3323L62.7994 75.0785L57.9884 80.9686C49.6694 91.1539 41.0059 100.199 30.6964 109.465C25.483 114.15 13.8208 123.572 13.2347 123.572C12.5385 123.572 8.47059 113.045 7.04703 107.559C4.88088 99.2109 4.36401 93.8567 4.69823 83.2326C4.93377 75.7403 5.28924 72.4646 6.3546 67.9689C10.5402 50.3071 19.4715 35.4893 32.5398 24.5246C45.6724 13.5058 58.8116 7.57749 75.9244 4.94995C81.2103 4.13825 94.4978 4.30996 99.6779 5.25686ZM76.7787 34.4498C81.4851 35.0669 81.5587 35.1159 81.1656 37.3581C79.5844 46.374 73.5292 59.7734 66.7364 69.2876L64.8216 71.9691L62.5186 67.107C60.1927 62.1965 55.0627 47.5313 54.4188 43.9514L54.0699 42.0119L59.4272 39.6967C62.3735 38.4232 66.3787 36.5425 68.3279 35.5177C70.277 34.4923 72.3625 33.752 72.9622 33.873C73.562 33.9935 75.2794 34.2535 76.7787 34.4498ZM62.6418 43.7492C60.7161 45.6751 62.2509 49.4344 64.9633 49.4344C66.5238 49.4344 68.3279 47.5798 68.3279 45.9755C68.3279 43.3474 64.531 41.8608 62.6418 43.7492ZM131.498 61.9413C135.138 63.5735 138.116 65.222 138.116 65.6052C138.116 67.3349 128.917 81.052 127.757 81.052C126.736 81.052 120.124 63.6841 120.124 61.0037C120.124 60.1882 120.657 59.7592 122.168 59.3601C123.293 59.0636 124.363 58.8548 124.547 58.8973C124.731 58.9398 127.859 60.3092 131.498 61.9413ZM128.068 65.5545C127.597 66.026 127.211 66.6218 127.211 66.8786C127.211 67.4815 128.785 69.0591 129.387 69.0591C131.405 69.0591 132.347 66.7805 130.919 65.3522C130.03 64.4637 129.092 64.5302 128.068 65.5545ZM25.6646 120.905C24.8189 121.385 24.7104 122.426 24.7104 130.074C24.7104 137.184 24.8582 138.825 25.5512 139.4C27.0576 140.65 27.6928 139.108 27.9818 133.496L28.2544 128.206L29.8311 132.75C32.1074 139.311 33.3151 139.329 35.6175 132.84C36.3089 130.891 37.082 129.063 37.335 128.778C37.5896 128.492 37.7957 130.596 37.7957 133.482C37.7957 138.76 38.36 140.38 39.8724 139.446C40.3778 139.133 40.5114 136.753 40.3996 130.073L40.3244 125.596L40.2492 121.119H38.6386C37.088 121.119 36.9577 121.323 35.1372 126.571C34.0975 129.569 33.1662 132.124 33.0675 132.249C32.7017 132.714 32.2459 131.754 30.4729 126.79C28.5739 121.472 27.3368 119.958 25.6646 120.905ZM59.6044 120.658C57.6051 121.459 56.3331 123.243 56.3331 125.243C56.3331 127.931 57.5315 129.277 61.7869 131.37C65.7653 133.327 66.5636 134.83 64.4208 136.33C62.7628 137.492 61.3742 137.427 58.8443 136.072C57.4911 135.347 56.5495 135.131 56.2115 135.469C54.5802 137.1 58.2124 139.926 61.9401 139.926C64.8554 139.926 67.178 138.566 68.1223 136.307C69.5399 132.914 68.149 130.746 63.0932 128.463C59.4097 126.801 58.5472 125.587 59.9484 124.038C61.059 122.811 62.6151 122.756 64.7458 123.867C66.1802 124.615 66.4289 124.614 67.1818 123.861C67.937 123.107 67.9042 122.906 66.8569 121.859C65.6765 120.679 61.3409 119.96 59.6044 120.658ZM75.6447 120.926C73.9022 121.771 72.5528 124.435 72.9508 126.245C73.3935 128.26 74.9604 129.651 78.8233 131.454C81.5794 132.742 81.9583 133.109 81.9583 134.495C81.9583 137.268 78.7279 138.053 75.4746 136.069C73.8188 135.06 73.538 135.029 72.7954 135.771C72.097 136.47 72.0811 136.74 72.6967 137.482C73.9518 138.994 76.3513 139.926 78.9869 139.926C81.1432 139.926 81.7991 139.649 83.3759 138.073C84.7591 136.69 85.2296 135.748 85.2296 134.361C85.2296 131.776 84.2673 130.703 79.9666 128.491C76.8747 126.9 76.2335 126.339 76.2335 125.221C76.2335 123.227 78.5987 122.524 81.1727 123.751C83.3328 124.78 84.1392 124.579 84.1392 123.009C84.1392 120.87 78.5736 119.505 75.6447 120.926ZM99.2542 120.944C98.3852 121.596 98.3012 122.566 98.4364 130.377L98.5875 139.084L100.1 139.615C101.126 139.975 102.601 139.938 104.688 139.501C109.641 138.462 112.04 135.433 112.09 130.158C112.125 126.403 110.81 123.425 108.48 121.987C106.218 120.592 100.574 119.953 99.2542 120.944ZM120.643 121.53C117.745 123.482 116.575 125.983 116.609 130.153C116.643 134.321 117.808 136.788 120.643 138.698C126.162 142.417 132.664 137.744 132.664 130.057C132.664 122.465 126.132 117.832 120.643 121.53ZM142.205 121.036C135.842 123.962 135.311 134.695 141.331 138.695C144.24 140.628 149.959 140.066 151.212 137.725C151.863 136.508 151.905 131.208 151.271 130.209C150.57 129.103 146.762 128.794 145.497 129.741C144.587 130.421 144.536 130.672 145.154 131.418C145.555 131.9 146.466 132.294 147.178 132.294C148.322 132.294 148.475 132.546 148.475 134.417C148.475 136.588 147.87 137.201 145.73 137.201C142.193 137.201 140.028 133.907 140.424 129.129C140.634 126.595 140.949 125.869 142.402 124.571C144.327 122.851 146.127 122.631 148.447 123.831C149.824 124.543 150.079 124.539 150.692 123.801C152.578 121.53 145.878 119.347 142.205 121.036ZM47.4509 121.187C47.2383 121.399 47.0644 125.427 47.0644 130.138C47.0644 139.242 47.4433 140.693 49.441 139.232C50.2539 138.638 50.3466 137.513 50.2141 129.838C50.0702 121.534 50.0102 121.112 48.9503 120.96C48.338 120.872 47.6636 120.975 47.4509 121.187ZM127.857 124.68C129.451 126.273 129.502 126.476 129.304 130.399C129.075 134.943 128.198 136.376 125.293 136.958C120.167 137.982 117.442 128.106 121.831 124.413C124.021 122.57 125.828 122.651 127.857 124.68ZM106.901 124.41C109.489 126.222 109.706 132.658 107.268 135.287C106.316 136.314 105.449 136.656 103.793 136.656H101.586V130.114V123.572H103.645C104.778 123.572 106.243 123.949 106.901 124.41Z" fill="#FFF8E5"/>
</svg>
